<?xml version="1.0" standalone="no"?>
<!DOCTYPE svg PUBLIC "-//W3C//DTD SVG 20010904//EN"
 "http://www.w3.org/TR/2001/REC-SVG-20010904/DTD/svg10.dtd">
<svg version="1.0" xmlns="http://www.w3.org/2000/svg"
 width="700.000000pt" height="700.000000pt" viewBox="0 0 700.000000 700.000000"
 preserveAspectRatio="xMidYMid meet">
<metadata>
Created by potrace 1.14, written by Peter Selinger 2001-2017
</metadata>
<g transform="translate(0.000000,700.000000) scale(0.100000,-0.100000)"
fill="#000000" stroke="none">
<path d="M262 6415 c-110 -34 -190 -135 -200 -252 -11 -144 78 -270 215 -306
39 -9 524 -12 2249 -11 l2199 0 56 26 c226 104 234 419 12 529 l-48 24 -2220
2 c-1833 1 -2227 -1 -2263 -12z"/>
<path d="M1538 4778 c-248 -31 -342 -346 -152 -506 89 -75 37 -71 1004 -72
959 0 925 -2 1013 65 61 47 107 138 108 216 2 86 -24 152 -86 214 -94 94 -35
88 -995 89 -460 1 -861 -2 -892 -6z"/>
<path d="M4272 4778 c-143 -24 -245 -142 -244 -282 1 -118 57 -211 158 -262
l57 -29 1186 0 1186 0 54 30 c160 89 203 285 94 432 -40 55 -106 97 -168 109
-49 9 -2268 12 -2323 2z"/>
<path d="M1455 3121 c-147 -68 -211 -238 -143 -381 47 -100 120 -154 225 -168
73 -9 1081 -8 1144 2 48 7 120 46 159 87 12 13 33 47 46 74 60 129 22 278 -91
357 -84 59 -69 58 -700 57 l-580 0 -60 -28z"/>
<path d="M3651 3139 c-74 -22 -149 -89 -188 -169 -26 -54 -23 -172 6 -233 31
-63 84 -115 151 -145 l54 -25 1434 -1 c985 -1 1452 2 1489 10 116 23 214 134
228 259 5 36 -16 126 -37 163 -27 49 -75 95 -129 124 l-44 23 -1465 2 c-926 1
-1477 -2 -1499 -8z"/>
<path d="M1498 1503 c-66 -17 -116 -51 -155 -106 -45 -63 -58 -105 -56 -177 3
-138 95 -250 228 -277 32 -7 458 -10 1200 -9 974 2 1155 4 1180 16 144 69 210
195 179 345 -16 79 -107 180 -186 205 -63 21 -2310 23 -2390 3z"/>
<path d="M4824 1505 c-64 -19 -99 -42 -142 -90 -125 -143 -83 -355 89 -450
l54 -30 890 0 890 1 48 23 c225 110 225 422 0 532 l-48 23 -871 1 c-639 1
-881 -1 -910 -10z"/>
</g>
</svg>
